{"title":"Lilo &amp; Stitch (2002)  1080p  BluRay","uid":8830180,"size":5493938713,"categoryP":"video","categoryS":"hd___movies","magnet":"?xt=urn:btih:71645d5e924110ecd8a03ac8beea0f268483bdc9&amp;dn=Lilo+%26amp%3B+Stitch+%282002%29++1080p++BluRay&amp;tr=udp%3A%2F%2Ftracker.openbittorrent.com%3A80&amp;tr=udp%3A%2F%2Fopen.demonii.com%3A1337&amp;tr=udp%3A%2F%2Ftracker.coppersurfer.tk%3A6969&amp;tr=udp%3A%2F%2Fexodus.desync.com%3A6969","seeders":5,"leechers":4,"uploader":"molpol","files":-1,"time":1376951049,"description":"\nLilo &amp; Stitch (2002) 1080p  Dual Audio: English &amp; Latin Spanish\n\n\nOverview\n\nA lonely Hawaiian girl named Lilo is being raised by her older sister, Nani, after their parents die -- under the watch of social worker Cobra Bubbles. When Lilo adopts a funny-looking dog and names him &quot;Stitch,&quot; she doesn't realize her new best friend is a wacky alien created by mad scientist Dr. Jumba.\n\n\nMedia Info:\n\nFormat                                   : Matroska\nFormat version                           : Version 4 / Version 2\nFile size                                : 5.12 GiB\nDuration                                 : 1h 25mn\nOverall bit rate                         : 8 577 Kbps\nMovie name                               : LILO STICH 2 MOVIE COLLECTION.Title100.BlurayRip\nEncoded date                             : UTC 2013-08-09 23:29:08\nWriting application                      : mkvmerge v6.1.0 ('Old Devil') built on Mar  2 2013 22:22:31\nWriting library                          : libebml v1.3.0 + libmatroska v1.4.0\n\nVideo\nID                                       : 1\nFormat                                   : AVC\nFormat/Info                              : Advanced Video Codec\nFormat profile                           : &lt;a class=&quot;__cf_email__&quot; href=&quot;/cdn-cgi/l/email-protection&quot; data-cfemail=&quot;6a22030d022a265e445b&quot;&gt;[email&amp;#160;protected]&lt;/a&gt;&lt;script cf-hash='f9e31' type=&quot;text/javascript&quot;&gt;\n/* &lt;![CDATA[ */!function(){try{var t=&quot;currentScript&quot;in document?document.currentScript:function(){for(var t=document.getElementsByTagName(&quot;script&quot;),e=t.length;e--;)if(t[e].getAttribute(&quot;cf-hash&quot;))return t[e]}();if(t&amp;&amp;t.previousSibling){var e,r,n,i,c=t.previousSibling,a=c.getAttribute(&quot;data-cfemail&quot;);if(a){for(e=&quot;&quot;,r=parseInt(a.substr(0,2),16),n=2;a.length-n;n+=2)i=parseInt(a.substr(n,2),16)^r,e+=String.fromCharCode(i);e=document.createTextNode(e),c.parentNode.replaceChild(e,c)}}}catch(u){}}();/* ]]&gt; */&lt;/script&gt;\nFormat settings, CABAC                   : Yes\nFormat settings, ReFrames                : 2 frames\nCodec ID                                 : V_MPEG4/ISO/AVC\nDuration                                 : 1h 25mn\nBit rate                                 : 7 318 Kbps\nWidth                                    : 1 920 pixels\nHeight                                   : 1 080 pixels\nDisplay aspect ratio                     : 16:9\nFrame rate mode                          : Constant\nFrame rate                               : 23.976 fps\nColor space                              : YUV\nChroma subsampling                       : 4:2:0\nBit depth                                : 8 bits\nScan type                                : Progressive\nBits/(Pixel*Frame)                       : 0.147\nStream size                              : 4.37 GiB (85%)\nWriting library                          : x264 core\nDefault                                  : Yes\nForced                                   : No\nColor primaries                          : BT.709\nTransfer characteristics                 : BT.709\nMatrix coefficients                      : BT.709\n\nAudio #1\nID                                       : 2\nFormat                                   : AC-3\nFormat/Info                              : Audio Coding 3\nMode extension                           : CM (complete main)\nFormat settings, Endianness              : Big\nCodec ID                                 : A_AC3\nDuration                                 : 1h 25mn\nBit rate mode                            : Constant\nBit rate                                 : 640 Kbps\nChannel(s)                               : 6 channels\nChannel positions                        : Front: L C R, Side: L R, LFE\nSampling rate                            : 48.0 KHz\nBit depth                                : 16 bits\nCompression mode                         : Lossy\nStream size                              : 391 MiB (7%)\nLanguage                                 : Latin Spanish\nDefault                                  : Yes\nForced                                   : No\n\nAudio #2\nID                                       : 3\nFormat                                   : AC-3\nFormat/Info                              : Audio Coding 3\nMode extension                           : CM (complete main)\nFormat settings, Endianness              : Big\nCodec ID                                 : A_AC3\nDuration                                 : 1h 25mn\nBit rate mode                            : Constant\nBit rate                                 : 448 Kbps\nChannel(s)                               : 6 channels\nChannel positions                        : Front: L C R, Side: L R, LFE\nSampling rate                            : 48.0 KHz\nBit depth                                : 16 bits\nCompression mode                         : Lossy\nStream size                              : 274 MiB (5%)\nLanguage                                 : English\nDefault                                  : No\nForced                                   : No\n\nText #1\nID                                       : 4\nFormat                                   : PGS\nMuxing mode                              : zlib\nCodec ID                                 : S_HDMV/PGS\nCodec ID/Info                            : The same subtitle format used on BDs/HD-DVDs\nLanguage                                 : Spanish\nDefault                                  : No\nForced                                   : No\n\nText #2\nID                                       : 5\nFormat                                   : PGS\nMuxing mode                              : zlib\nCodec ID                                 : S_HDMV/PGS\nCodec ID/Info                            : The same subtitle format used on BDs/HD-DVDs\nLanguage                                 : Spanish\nDefault                                  : Yes\nForced                                   : No\n\nMenu\n00:00:00.000                             : en:(01)00:00:00:000\n00:02:55.884                             : en:(02)00:02:55:884\n00:06:33.893                             : en:(03)00:06:33:893\n00:08:29.383                             : en:(04)00:08:29:383\n00:09:57.972                             : en:(05)00:09:57:972\n00:14:55.895                             : en:(06)00:14:55:895\n00:19:58.822                             : en:(07)00:19:58:822\n00:21:31.999                             : en:(08)00:21:31:999\n00:23:54.391                             : en:(09)00:23:54:391\n00:24:54.951                             : en:(10)00:24:54:951\n00:28:41.261                             : en:(11)00:28:41:261\n00:30:26.491                             : en:(12)00:30:26:491\n00:31:43.943                             : en:(13)00:31:43:943\n00:35:00.348                             : en:(14)00:35:00:348\n00:36:37.653                             : en:(15)00:36:37:653\n00:39:30.159                             : en:(16)00:39:30:159\n00:40:59.748                             : en:(17)00:40:59:748\n00:46:05.012                             : en:(18)00:46:05:012\n00:49:34.012                             : en:(19)00:49:34:012\n00:50:25.689                             : en:(20)00:50:25:689\n00:52:08.291                             : en:(21)00:52:08:291\n00:55:11.433                             : en:(22)00:55:11:433\n00:55:48.887                             : en:(23)00:55:48:887\n00:57:18.977                             : en:(24)00:57:18:977\n01:02:33.624                             : en:(25)01:02:33:624\n01:03:41.150                             : en:(26)01:03:41:150\n01:05:07.153                             : en:(27)01:05:07:153\n01:07:53.235                             : en:(28)01:07:53:235\n01:13:53.804                             : en:(29)01:13:53:804\n01:17:18.634                             : en:(30)01:17:18:634\n01:25:14.067                             : en:(31)01:25:14:067\n\n","torrent":{"xt":"urn:btih:71645d5e924110ecd8a03ac8beea0f268483bdc9","amp;dn":"Lilo+%26amp%3B+Stitch+%282002%29++1080p++BluRay","amp;tr":["udp%3A%2F%2Ftracker.openbittorrent.com%3A80","udp%3A%2F%2Fopen.demonii.com%3A1337","udp%3A%2F%2Ftracker.coppersurfer.tk%3A6969","udp%3A%2F%2Fexodus.desync.com%3A6969"],"infoHash":"71645d5e924110ecd8a03ac8beea0f268483bdc9","infoHashBuffer":{"type":"Buffer","data":[113,100,93,94,146,65,16,236,216,160,58,200,190,234,15,38,132,131,189,201]},"announce":[],"urlList":[]}}